<mxfile host="app.diagrams.net" modified="2022-04-01T09:26:59.156Z" agent="5.0 (Windows NT 10.0; Win64; x64) AppleWebKit/537.36 (KHTML, like Gecko) Chrome/100.0.4896.60 Safari/537.36" etag="ibaC90ENzkwwUZlpAPoT" version="17.2.4" type="github">
  <diagram id="VgGhHzuDQOqaiqI6v71O" name="第 1 页">
    <mxGraphModel dx="1038" dy="539" grid="1" gridSize="10" guides="1" tooltips="1" connect="1" arrows="1" fold="1" page="1" pageScale="1" pageWidth="827" pageHeight="1169" math="0" shadow="0">
      <root>
        <mxCell id="0" />
        <mxCell id="1" parent="0" />
        <mxCell id="lonrbAoY2lLDJeJu-5T3-50" style="rounded=0;orthogonalLoop=1;jettySize=auto;html=1;exitX=0.5;exitY=1;exitDx=0;exitDy=0;entryX=0.5;entryY=0;entryDx=0;entryDy=0;fontSize=15;" edge="1" parent="1" source="lonrbAoY2lLDJeJu-5T3-1" target="lonrbAoY2lLDJeJu-5T3-5">
          <mxGeometry relative="1" as="geometry" />
        </mxCell>
        <mxCell id="lonrbAoY2lLDJeJu-5T3-51" style="edgeStyle=none;rounded=0;orthogonalLoop=1;jettySize=auto;html=1;exitX=0.5;exitY=1;exitDx=0;exitDy=0;entryX=0.5;entryY=0;entryDx=0;entryDy=0;fontSize=15;" edge="1" parent="1" source="lonrbAoY2lLDJeJu-5T3-1" target="lonrbAoY2lLDJeJu-5T3-6">
          <mxGeometry relative="1" as="geometry" />
        </mxCell>
        <mxCell id="lonrbAoY2lLDJeJu-5T3-1" value="&lt;font style=&quot;font-size: 15px&quot;&gt;角色：管理员/非管理员&lt;/font&gt;" style="rounded=0;whiteSpace=wrap;html=1;" vertex="1" parent="1">
          <mxGeometry x="300" width="180" height="60" as="geometry" />
        </mxCell>
        <mxCell id="lonrbAoY2lLDJeJu-5T3-5" value="&lt;span style=&quot;font-size: 15px&quot;&gt;我的申请&lt;/span&gt;" style="rounded=0;whiteSpace=wrap;html=1;" vertex="1" parent="1">
          <mxGeometry y="150" width="360" height="60" as="geometry" />
        </mxCell>
        <mxCell id="lonrbAoY2lLDJeJu-5T3-6" value="&lt;span style=&quot;font-size: 15px&quot;&gt;我的审批&lt;/span&gt;" style="rounded=0;whiteSpace=wrap;html=1;" vertex="1" parent="1">
          <mxGeometry x="400" y="150" width="360" height="60" as="geometry" />
        </mxCell>
        <mxCell id="lonrbAoY2lLDJeJu-5T3-7" value="&lt;span style=&quot;font-size: 15px&quot;&gt;工单类型&lt;/span&gt;" style="rounded=0;whiteSpace=wrap;html=1;" vertex="1" parent="1">
          <mxGeometry y="260" width="170" height="30" as="geometry" />
        </mxCell>
        <mxCell id="lonrbAoY2lLDJeJu-5T3-8" value="&lt;span style=&quot;font-size: 15px&quot;&gt;工单ID&lt;/span&gt;" style="rounded=0;whiteSpace=wrap;html=1;" vertex="1" parent="1">
          <mxGeometry y="290" width="170" height="30" as="geometry" />
        </mxCell>
        <mxCell id="lonrbAoY2lLDJeJu-5T3-9" value="&lt;span style=&quot;font-size: 15px&quot;&gt;工单标题&lt;/span&gt;" style="rounded=0;whiteSpace=wrap;html=1;" vertex="1" parent="1">
          <mxGeometry y="320" width="170" height="30" as="geometry" />
        </mxCell>
        <mxCell id="lonrbAoY2lLDJeJu-5T3-10" value="&lt;span style=&quot;font-size: 15px&quot;&gt;申请原因&lt;/span&gt;" style="rounded=0;whiteSpace=wrap;html=1;" vertex="1" parent="1">
          <mxGeometry y="350" width="170" height="30" as="geometry" />
        </mxCell>
        <mxCell id="lonrbAoY2lLDJeJu-5T3-11" value="&lt;span style=&quot;font-size: 15px&quot;&gt;任务状态&lt;/span&gt;" style="rounded=0;whiteSpace=wrap;html=1;" vertex="1" parent="1">
          <mxGeometry y="380" width="170" height="30" as="geometry" />
        </mxCell>
        <mxCell id="lonrbAoY2lLDJeJu-5T3-12" value="&lt;span style=&quot;font-size: 15px&quot;&gt;申请时间&lt;/span&gt;" style="rounded=0;whiteSpace=wrap;html=1;" vertex="1" parent="1">
          <mxGeometry y="410" width="170" height="30" as="geometry" />
        </mxCell>
        <mxCell id="lonrbAoY2lLDJeJu-5T3-13" value="&lt;span style=&quot;font-size: 15px&quot;&gt;审批时间&lt;/span&gt;" style="rounded=0;whiteSpace=wrap;html=1;" vertex="1" parent="1">
          <mxGeometry y="440" width="170" height="30" as="geometry" />
        </mxCell>
        <mxCell id="lonrbAoY2lLDJeJu-5T3-14" value="&lt;span style=&quot;font-size: 15px&quot;&gt;操作&lt;/span&gt;" style="rounded=0;whiteSpace=wrap;html=1;" vertex="1" parent="1">
          <mxGeometry y="470" width="170" height="30" as="geometry" />
        </mxCell>
        <mxCell id="lonrbAoY2lLDJeJu-5T3-16" value="" style="rounded=0;whiteSpace=wrap;html=1;" vertex="1" parent="1">
          <mxGeometry y="230" width="170" height="30" as="geometry" />
        </mxCell>
        <mxCell id="lonrbAoY2lLDJeJu-5T3-17" value="&lt;b&gt;审批中&lt;/b&gt;" style="text;html=1;strokeColor=none;fillColor=none;align=center;verticalAlign=middle;whiteSpace=wrap;rounded=0;fontSize=15;" vertex="1" parent="1">
          <mxGeometry y="230" width="60" height="30" as="geometry" />
        </mxCell>
        <mxCell id="lonrbAoY2lLDJeJu-5T3-18" value="&lt;span style=&quot;font-size: 15px&quot;&gt;工单类型&lt;/span&gt;" style="rounded=0;whiteSpace=wrap;html=1;" vertex="1" parent="1">
          <mxGeometry x="189" y="260" width="170" height="30" as="geometry" />
        </mxCell>
        <mxCell id="lonrbAoY2lLDJeJu-5T3-19" value="&lt;span style=&quot;font-size: 15px&quot;&gt;工单ID&lt;/span&gt;" style="rounded=0;whiteSpace=wrap;html=1;" vertex="1" parent="1">
          <mxGeometry x="189" y="290" width="170" height="30" as="geometry" />
        </mxCell>
        <mxCell id="lonrbAoY2lLDJeJu-5T3-20" value="&lt;span style=&quot;font-size: 15px&quot;&gt;工单标题&lt;/span&gt;" style="rounded=0;whiteSpace=wrap;html=1;" vertex="1" parent="1">
          <mxGeometry x="189" y="320" width="170" height="30" as="geometry" />
        </mxCell>
        <mxCell id="lonrbAoY2lLDJeJu-5T3-21" value="&lt;span style=&quot;font-size: 15px&quot;&gt;申请原因&lt;/span&gt;" style="rounded=0;whiteSpace=wrap;html=1;" vertex="1" parent="1">
          <mxGeometry x="189" y="350" width="170" height="30" as="geometry" />
        </mxCell>
        <mxCell id="lonrbAoY2lLDJeJu-5T3-22" value="&lt;span style=&quot;font-size: 15px&quot;&gt;任务状态&lt;/span&gt;" style="rounded=0;whiteSpace=wrap;html=1;" vertex="1" parent="1">
          <mxGeometry x="189" y="380" width="170" height="30" as="geometry" />
        </mxCell>
        <mxCell id="lonrbAoY2lLDJeJu-5T3-23" value="&lt;span style=&quot;font-size: 15px&quot;&gt;申请时间&lt;/span&gt;" style="rounded=0;whiteSpace=wrap;html=1;" vertex="1" parent="1">
          <mxGeometry x="189" y="410" width="170" height="30" as="geometry" />
        </mxCell>
        <mxCell id="lonrbAoY2lLDJeJu-5T3-24" value="&lt;span style=&quot;font-size: 15px&quot;&gt;审批时间&lt;/span&gt;" style="rounded=0;whiteSpace=wrap;html=1;" vertex="1" parent="1">
          <mxGeometry x="189" y="440" width="170" height="30" as="geometry" />
        </mxCell>
        <mxCell id="lonrbAoY2lLDJeJu-5T3-25" value="&lt;span style=&quot;font-size: 15px&quot;&gt;操作&lt;/span&gt;" style="rounded=0;whiteSpace=wrap;html=1;" vertex="1" parent="1">
          <mxGeometry x="189" y="470" width="170" height="30" as="geometry" />
        </mxCell>
        <mxCell id="lonrbAoY2lLDJeJu-5T3-26" value="" style="rounded=0;whiteSpace=wrap;html=1;" vertex="1" parent="1">
          <mxGeometry x="189" y="230" width="170" height="30" as="geometry" />
        </mxCell>
        <mxCell id="lonrbAoY2lLDJeJu-5T3-27" value="&lt;b&gt;已通过&lt;/b&gt;" style="text;html=1;strokeColor=none;fillColor=none;align=center;verticalAlign=middle;whiteSpace=wrap;rounded=0;fontSize=15;" vertex="1" parent="1">
          <mxGeometry x="189" y="230" width="60" height="30" as="geometry" />
        </mxCell>
        <mxCell id="lonrbAoY2lLDJeJu-5T3-28" value="&lt;span style=&quot;font-size: 15px&quot;&gt;工单类型&lt;/span&gt;" style="rounded=0;whiteSpace=wrap;html=1;" vertex="1" parent="1">
          <mxGeometry x="400" y="260" width="170" height="30" as="geometry" />
        </mxCell>
        <mxCell id="lonrbAoY2lLDJeJu-5T3-29" value="&lt;span style=&quot;font-size: 15px&quot;&gt;工单ID&lt;/span&gt;" style="rounded=0;whiteSpace=wrap;html=1;" vertex="1" parent="1">
          <mxGeometry x="400" y="290" width="170" height="30" as="geometry" />
        </mxCell>
        <mxCell id="lonrbAoY2lLDJeJu-5T3-30" value="&lt;span style=&quot;font-size: 15px&quot;&gt;工单标题&lt;/span&gt;" style="rounded=0;whiteSpace=wrap;html=1;" vertex="1" parent="1">
          <mxGeometry x="400" y="320" width="170" height="30" as="geometry" />
        </mxCell>
        <mxCell id="lonrbAoY2lLDJeJu-5T3-31" value="&lt;span style=&quot;font-size: 15px&quot;&gt;申请原因&lt;/span&gt;" style="rounded=0;whiteSpace=wrap;html=1;" vertex="1" parent="1">
          <mxGeometry x="400" y="380" width="170" height="30" as="geometry" />
        </mxCell>
        <mxCell id="lonrbAoY2lLDJeJu-5T3-32" value="&lt;span style=&quot;font-size: 15px&quot;&gt;任务状态&lt;/span&gt;" style="rounded=0;whiteSpace=wrap;html=1;" vertex="1" parent="1">
          <mxGeometry x="400" y="410" width="170" height="30" as="geometry" />
        </mxCell>
        <mxCell id="lonrbAoY2lLDJeJu-5T3-33" value="&lt;span style=&quot;font-size: 15px&quot;&gt;申请时间&lt;/span&gt;" style="rounded=0;whiteSpace=wrap;html=1;" vertex="1" parent="1">
          <mxGeometry x="400" y="440" width="170" height="30" as="geometry" />
        </mxCell>
        <mxCell id="lonrbAoY2lLDJeJu-5T3-34" value="&lt;span style=&quot;font-size: 15px&quot;&gt;审批时间&lt;/span&gt;" style="rounded=0;whiteSpace=wrap;html=1;" vertex="1" parent="1">
          <mxGeometry x="400" y="470" width="170" height="30" as="geometry" />
        </mxCell>
        <mxCell id="lonrbAoY2lLDJeJu-5T3-35" value="&lt;span style=&quot;font-size: 15px&quot;&gt;操作&lt;/span&gt;" style="rounded=0;whiteSpace=wrap;html=1;" vertex="1" parent="1">
          <mxGeometry x="400" y="500" width="170" height="30" as="geometry" />
        </mxCell>
        <mxCell id="lonrbAoY2lLDJeJu-5T3-36" value="" style="rounded=0;whiteSpace=wrap;html=1;" vertex="1" parent="1">
          <mxGeometry x="400" y="230" width="170" height="30" as="geometry" />
        </mxCell>
        <mxCell id="lonrbAoY2lLDJeJu-5T3-37" value="&lt;b&gt;审批中&lt;/b&gt;" style="text;html=1;strokeColor=none;fillColor=none;align=center;verticalAlign=middle;whiteSpace=wrap;rounded=0;fontSize=15;" vertex="1" parent="1">
          <mxGeometry x="400" y="230" width="60" height="30" as="geometry" />
        </mxCell>
        <mxCell id="lonrbAoY2lLDJeJu-5T3-38" value="&lt;span style=&quot;font-size: 15px&quot;&gt;工单类型&lt;/span&gt;" style="rounded=0;whiteSpace=wrap;html=1;" vertex="1" parent="1">
          <mxGeometry x="589" y="260" width="170" height="30" as="geometry" />
        </mxCell>
        <mxCell id="lonrbAoY2lLDJeJu-5T3-39" value="&lt;span style=&quot;font-size: 15px&quot;&gt;工单ID&lt;/span&gt;" style="rounded=0;whiteSpace=wrap;html=1;" vertex="1" parent="1">
          <mxGeometry x="589" y="290" width="170" height="30" as="geometry" />
        </mxCell>
        <mxCell id="lonrbAoY2lLDJeJu-5T3-40" value="&lt;span style=&quot;font-size: 15px&quot;&gt;工单标题&lt;/span&gt;" style="rounded=0;whiteSpace=wrap;html=1;" vertex="1" parent="1">
          <mxGeometry x="589" y="320" width="170" height="30" as="geometry" />
        </mxCell>
        <mxCell id="lonrbAoY2lLDJeJu-5T3-41" value="&lt;span style=&quot;font-size: 15px&quot;&gt;申请原因&lt;/span&gt;" style="rounded=0;whiteSpace=wrap;html=1;" vertex="1" parent="1">
          <mxGeometry x="589" y="380" width="170" height="30" as="geometry" />
        </mxCell>
        <mxCell id="lonrbAoY2lLDJeJu-5T3-42" value="&lt;span style=&quot;font-size: 15px&quot;&gt;任务状态&lt;/span&gt;" style="rounded=0;whiteSpace=wrap;html=1;" vertex="1" parent="1">
          <mxGeometry x="589" y="410" width="170" height="30" as="geometry" />
        </mxCell>
        <mxCell id="lonrbAoY2lLDJeJu-5T3-43" value="&lt;span style=&quot;font-size: 15px&quot;&gt;申请时间&lt;/span&gt;" style="rounded=0;whiteSpace=wrap;html=1;" vertex="1" parent="1">
          <mxGeometry x="589" y="440" width="170" height="30" as="geometry" />
        </mxCell>
        <mxCell id="lonrbAoY2lLDJeJu-5T3-44" value="&lt;span style=&quot;font-size: 15px&quot;&gt;审批时间&lt;/span&gt;" style="rounded=0;whiteSpace=wrap;html=1;" vertex="1" parent="1">
          <mxGeometry x="589" y="470" width="170" height="30" as="geometry" />
        </mxCell>
        <mxCell id="lonrbAoY2lLDJeJu-5T3-45" value="&lt;span style=&quot;font-size: 15px&quot;&gt;操作&lt;/span&gt;" style="rounded=0;whiteSpace=wrap;html=1;" vertex="1" parent="1">
          <mxGeometry x="589" y="500" width="170" height="30" as="geometry" />
        </mxCell>
        <mxCell id="lonrbAoY2lLDJeJu-5T3-46" value="" style="rounded=0;whiteSpace=wrap;html=1;" vertex="1" parent="1">
          <mxGeometry x="589" y="230" width="170" height="30" as="geometry" />
        </mxCell>
        <mxCell id="lonrbAoY2lLDJeJu-5T3-47" value="&lt;b&gt;已通过&lt;/b&gt;" style="text;html=1;strokeColor=none;fillColor=none;align=center;verticalAlign=middle;whiteSpace=wrap;rounded=0;fontSize=15;" vertex="1" parent="1">
          <mxGeometry x="589" y="230" width="60" height="30" as="geometry" />
        </mxCell>
        <mxCell id="lonrbAoY2lLDJeJu-5T3-48" value="&lt;span style=&quot;font-size: 15px&quot;&gt;审批人&lt;/span&gt;" style="rounded=0;whiteSpace=wrap;html=1;" vertex="1" parent="1">
          <mxGeometry x="400" y="350" width="170" height="30" as="geometry" />
        </mxCell>
        <mxCell id="lonrbAoY2lLDJeJu-5T3-49" value="&lt;span style=&quot;font-size: 15px&quot;&gt;审批人&lt;/span&gt;" style="rounded=0;whiteSpace=wrap;html=1;" vertex="1" parent="1">
          <mxGeometry x="589" y="350" width="170" height="30" as="geometry" />
        </mxCell>
      </root>
    </mxGraphModel>
  </diagram>
</mxfile>
